<?xml version="1.0" encoding="utf-8"?>
<!-- Generator: Adobe Illustrator 13.0.0, SVG Export Plug-In . SVG Version: 6.00 Build 14948)  -->
<!DOCTYPE svg PUBLIC "-//W3C//DTD SVG 1.0//EN" "http://www.w3.org/TR/2001/REC-SVG-20010904/DTD/svg10.dtd">
<svg version="1.0" id="Layer_1" xmlns="http://www.w3.org/2000/svg" xmlns:xlink="http://www.w3.org/1999/xlink" x="0px" y="0px"
	 width="970.889px" height="399.114px" viewBox="0 0 970.889 399.114" enable-background="new 0 0 970.889 399.114"
	 xml:space="preserve">
<path d="M917.555,125.205c-0.649-0.969-2.158-2.393-4.604-4.242c0,0-0.41-0.309-1.16-0.863
	C835.479,55.016,674.159,10.135,487.473,10.135c-91.563,0-177.012,10.807-249.333,29.488
	C149.506,60.787,81.391,93.619,46.565,133.818c-19.164,20.395-29.879,42.562-30.363,65.844
	c-1.707,83.747,129.166,156.91,313.506,186.204C185.37,351.846,88.311,288.4,89.776,217.068c0.027-1.375,0.121-2.746,0.227-4.121
	c0.996-12.062,4.941-21.135,4.941-21.135c3.719-8.529,12.299-20.73,19.072-27.129l28.869-27.246l1.76-1.66
	c6.773-6.395,19.08-9.529,27.35-6.967c8.268,2.561,20.662-0.484,27.543-6.768l20.188-18.428c6.883-6.285,18.469-6.668,25.75-0.857
	l21.441,17.109c7.281,5.811,20.24,7.543,28.797,3.857l34.767-14.988c8.551-3.691,22.713-4.09,31.465-0.895l32.812,11.992
	c8.754,3.197,21.48,0.605,28.285-5.762l53.295-49.836c6.803-6.365,18.088-6.527,25.074-0.365l47.412,41.844
	c6.985,6.162,18.658,6.447,25.938,0.631l9.771-7.805c7.276-5.816,18.149-4.748,24.153,2.379l14.109,16.734
	c6.008,7.123,17.578,9.238,25.715,4.699L717.096,84.1c8.144-4.539,21.355-4.367,29.377,0.375l70.597,41.762
	c8.024,4.744,20.319,3.607,27.336-2.527l6.934-6.068c7.013-6.135,19.836-8.35,28.496-4.92l4.375,1.73
	c44.453,29.73,70.125,64.766,70.125,102.287c0,8.166-1.234,16.209-3.592,24.111c5.238-11.631,8.004-23.619,8.004-35.877
	C958.747,176.553,944.016,149.553,917.555,125.205"/>
</svg>
