<?xml version="1.0" encoding="utf-8"?>
<!-- Generator: Adobe Illustrator 13.0.0, SVG Export Plug-In . SVG Version: 6.00 Build 14948)  -->
<!DOCTYPE svg PUBLIC "-//W3C//DTD SVG 1.0//EN" "http://www.w3.org/TR/2001/REC-SVG-20010904/DTD/svg10.dtd">
<svg version="1.0" id="Layer_1" xmlns="http://www.w3.org/2000/svg" xmlns:xlink="http://www.w3.org/1999/xlink" x="0px" y="0px"
	 width="970.889px" height="399.114px" viewBox="0 0 970.889 399.114" enable-background="new 0 0 970.889 399.114"
	 xml:space="preserve">
<g>
	<path fill="#FFFFFF" d="M315.86,393.926C233.081,387.564,6.807,321.785,0.147,207.396C-6.513,93.01,214.235-0.002,458.739,0
		c234.379,0,502.434,50.354,511.949,199.658C980.202,348.967,650.573,419.643,315.86,393.926"/>
	<path d="M303.04,291.994l-5.324,30.062h9.449c10.439,0,17.783-6.096,17.783-18.211c0-7.211-4.254-11.852-15.037-11.852H303.04z
		 M318.631,304.967c0,7.082-3.863,11.252-9.922,11.252h-3.947l3.262-18.381h1.76C316.184,297.838,318.631,300.498,318.631,304.967"
		/>
	<polygon points="339.633,291.99 333.62,291.99 328.295,322.057 334.307,322.057 	"/>
	<path d="M356.338,297.15c3.18,0,5.324,1.668,6.914,3.648l4.855-3.738c-2.234-3.133-5.754-5.539-11.082-5.539
		c-5.971,0-11.297,2.789-11.297,9.492c0,4.383,3.311,6.66,7.902,8.07c4.551,1.461,6.057,2.5,6.057,4.086
		c0,2.617-2.189,3.609-4.766,3.609c-3.096,0-6.102-0.992-8.289-3.957l-4.896,3.479c1.932,3.311,6.184,6.232,12.285,6.232
		c6.871,0,11.979-3.27,11.979-10.098c0-5.027-4.381-7.209-8.545-8.543c-4.252-1.42-5.5-2.059-5.5-3.781
		C351.956,298.479,353.204,297.15,356.338,297.15"/>
	<path d="M385.797,297.445c3.094,0,4.555,1.635,5.799,3.951l5.842-3.004c-2.061-4.426-5.025-6.871-10.99-6.871
		c-8.168,0-15.08,7.344-15.08,18.639c0,8.932,5.799,12.373,11.551,12.373c4.77,0,8.25-1.977,11.428-6.27l-4.811-3.484
		c-1.803,2.449-3.609,3.781-5.971,3.781c-3.434,0-5.924-2.359-5.924-7.254C377.641,303.117,380.944,297.445,385.797,297.445"/>
	<path d="M427.327,297.49c2.836,0,4.383,1.678,5.367,4.34l6.102-2.492c-1.588-5.027-4.98-7.82-11.086-7.82
		c-8.672,0-15.203,7.82-15.203,18.514c0,8.076,5.242,12.498,11.939,12.498c7.135,0,11.514-3.949,13.105-13.271l0.473-2.789H427.37
		l-0.988,5.625h4.25l-0.041,0.17c-0.732,2.879-2.619,4.43-5.455,4.43c-3.605,0-6.355-2.453-6.355-7.516
		C418.78,303.08,422.172,297.49,427.327,297.49"/>
	<path d="M442.229,310.16c0,7.734,4.512,12.373,11.896,12.373c8.979,0,15.119-8.506,15.119-18.641
		c0-7.736-4.51-12.371-11.895-12.371C448.372,291.521,442.229,300.025,442.229,310.16 M462.971,304.752
		c0,7.086-3.775,11.807-8.418,11.807c-3.393,0-6.053-2.275-6.053-7.254c0-7.09,3.779-11.812,8.416-11.812
		C460.311,297.492,462.971,299.764,462.971,304.752"/>
	<polygon points="477.571,291.99 472.288,322.057 493.209,322.057 494.241,316.131 479.331,316.131 483.584,291.99 	"/>
	<polygon points="524.346,297.873 525.375,291.99 504.034,291.99 498.745,322.057 504.76,322.057 506.995,309.387 515.885,309.387 
		516.917,303.549 508.02,303.549 509.014,297.873 	"/>
	<path d="M552.944,297.445c3.09,0,4.553,1.635,5.801,3.951l5.84-3.004c-2.061-4.426-5.025-6.871-10.996-6.871
		c-8.16,0-15.076,7.344-15.076,18.639c0,8.932,5.801,12.373,11.555,12.373c4.764,0,8.248-1.977,11.428-6.27l-4.816-3.484
		c-1.801,2.449-3.609,3.781-5.967,3.781c-3.436,0-5.928-2.359-5.928-7.254C544.784,303.117,548.092,297.445,552.944,297.445"/>
	<polygon points="571.752,291.99 566.467,322.057 587.381,322.057 588.413,316.131 573.51,316.131 577.764,291.99 	"/>
	<path d="M601.428,291.99h-6.012l-2.84,16.201c-0.211,1.197-0.336,2.963-0.336,3.99c0,7.129,4.508,10.352,10.865,10.352
		c8.072,0,11.895-4.469,13.396-12.934l3.098-17.609h-6.016l-3.049,17.527c-0.902,5.066-3.223,7.133-6.703,7.133
		c-3.604,0-5.496-1.721-5.496-5.201c0-1.463,0.174-2.881,0.34-3.908L601.428,291.99z"/>
	<path d="M646.479,298.994c0-4.168-3.26-7.004-9.32-7.004h-12.586l-5.32,30.066h14.088c7.041,0,11.939-3.611,11.939-10.133
		c0-2.578-1.246-4.555-3.18-5.758C644.286,304.959,646.479,302.771,646.479,298.994 M634.198,316.346h-8.035l1.375-7.777h6.961
		c3.09,0,4.551,1.121,4.551,3.441C639.049,314.801,637.077,316.346,634.198,316.346 M636.428,303.244h-7.986l1.031-5.711h6.998
		c2.623,0,3.738,0.859,3.738,2.406C640.209,302.131,638.749,303.244,636.428,303.244"/>
	<path d="M331.01,273.914c0.535,0.635,1.055,1.182,1.574,1.643c3.793,3.473,9.09,5.379,14.92,5.379h0.053h0.199
		c3.805,0,7.594-0.516,11.275-1.539c1.26,0.434,2.344,0.504,3.072,0.52h12.078c0.926-0.004,3.391-0.016,5.918-1.818
		c2.008-1.561,2.717-3.117,3.148-4.064l4.293-9.203c1.422,7.484,7.244,13.727,14.652,15.318c1.961,0.455,4.035,0.686,6.158,0.686
		h0.18c5.33,0,10.887-1.531,16.102-4.426c3.65,2.932,8.463,4.543,13.686,4.543l1.006-0.016c6.244-0.213,12.213-2.102,17.748-5.609
		c1.887,2.168,4.047,3.754,6.436,4.715c3.252,1.359,6.836,2.047,10.66,2.047c7.09-0.031,14.342-2.373,21.006-6.773
		c1.887,2.174,4.051,3.758,6.441,4.727c3.242,1.359,6.828,2.047,10.656,2.047c10.9-0.047,21.984-5.465,30.422-14.859
		c3.471-3.945,6.105-8.57,8.051-14.105c0.664-1.734,0.973-3.316,0.977-4.957c0.125-3.766-2.172-7.545-4.508-9.336l-0.059-0.039
		c-1.656-1.381-4.023-2.939-7.705-3.035c-3.533-0.223-7.828,2.531-9.1,5.793c-1.363,2.703-3.145,5.891-6.088,9.082
		c-2.107,2.434-3.678,3.793-4.674,4.527c0.268-2.898,1.266-7.236,2.787-12.043l0.354-0.008c3.266-0.074,5.336-1.373,7.041-2.602
		c9.713-7.555,17.121-15.875,25.572-28.766c4.215-6.473,8.23-14.195,11.332-21.746c2.531-6.314,5.449-14.539,5.531-22.193
		c-0.016-2.121-0.207-4.941-1.572-7.898c-1.312-2.99-4.135-5.592-7.174-6.621c-1.357-0.498-2.891-0.762-4.449-0.762h-0.059
		c-4.93,0.105-8.908,2.078-13.385,5.021c-3.639,2.504-7.49,5.832-11.473,9.91c-0.033-2.076-0.275-4.746-1.57-7.555
		c-1.311-2.984-4.125-5.586-7.166-6.617c-1.352-0.5-2.902-0.762-4.506-0.762c-4.936,0.113-8.92,2.086-13.393,5.023
		c-9.645,6.637-20.34,18.613-30.314,33.898l0.012-0.551c-0.006-3.146-0.908-5.871-2.674-8.086c-1.918-2.479-5.32-4.105-8.547-4.105
		l-0.299,0.004c-5.279,0.154-8.816,2.648-11.73,4.988c-3.191,2.697-5.932,6.109-7.92,9.869c-1.848,3.557-2.717,6.725-2.734,9.975
		c0,1.299,0.158,2.531,0.465,3.672c-1.277,0.328-2.488,0.93-3.547,1.758c-0.812,0.68-1.51,1.363-2.102,2.293l-0.047-0.086
		l-9.033,19.07c0.127-0.59,0.232-1.191,0.318-1.795c0.145-1.113,0.219-2.232,0.219-3.326c0.004-5.043-1.52-9.529-4.41-12.973
		c-2.588-3.16-6.393-5.285-10.547-5.918l12.332-26.777c1.047-2.379,1.75-4.506,1.783-7.129c0.086-2.469-0.99-5.898-3.588-7.988
		c-1.98-1.617-4.289-2.416-7.078-2.43c-0.668,0-1.336,0.047-2.047,0.148c-3.506,0.508-6.848,1.844-10.859,4.348
		c-3.068,2.072-6.246,4.449-8.539,8.758l-15.424,33.553l-0.791-0.482l5.367-11.59c0.484-1.074,1.129-2.742,1.135-4.873
		c0.092-2.625-1.234-5.637-3.219-7.305c-2.057-1.83-4.152-2.359-5.559-2.602c-0.906-0.141-1.76-0.207-2.699-0.207
		c-3.523,0.025-7.016,0.855-10.391,2.471c-4.268,2.074-7.395,5.074-9.291,8.926l-6.773,14.34c-3.129,0.68-6.107,2.41-8.02,4.656
		c-1.271,1.414-2.262,2.973-2.961,4.652c-0.791-1.68-1.773-3.205-2.924-4.547c-3.564-4.201-9.262-6.691-15.275-6.691l-0.27,0.004
		c-8.277,0.078-16.938,3.672-25.729,10.678c-4.494,3.633-8.557,7.854-12.109,12.58l0.018-0.979
		c0.006-6.211-1.812-11.602-5.25-15.592c-3.574-4.203-9.281-6.697-15.303-6.697l-0.248,0.002
		c-8.271,0.086-16.928,3.68-25.734,10.686l-0.02,0.014c-0.16-2.715-1.656-5.539-3.789-7.062c-1.613-1.223-3.625-1.895-5.668-1.895
		h-0.078c-2.195,0.004-4.355,0.719-6.234,2.055l-0.291,0.199c0.592-1.145,1.178-2.254,1.754-3.316
		c3.01-5.586,5.713-9.445,7.053-10.773c2.555-2.482,3.461-3.121,5.107-3.887c6.01-0.676,11.637-2.369,17.207-5.188
		c10.488-5.408,18.033-14.434,19.459-16.205l0.33-0.469l0.295-0.416c0.258-0.361,0.617-0.859,1.082-1.615
		c0.398-0.639,1.709-2.943,1.68-5.844c-0.027-1.709-0.27-3.76-1.83-5.979c-1.645-2.455-5.119-3.822-7.264-3.66
		c-2.836,0.105-4.412,0.967-5.676,1.758l-0.029-0.016l-0.346,0.25c-0.488,0.359-2.74,1.328-6.965,2.541
		c-5.82,1.842-12.168,2.814-18.361,2.814c-4.494,0-8.945-0.498-13.223-1.482l-21.223-4.951c-3.084-0.697-6.166-1.053-9.168-1.053
		c-19.053,0.08-31.076,13.32-34.191,25.58c-0.639,2.449-0.959,4.887-0.959,7.242c-0.049,11.719,8.072,17.41,8.393,17.625
		l0.699,0.479c1.42,0.85,3.104,1.312,4.744,1.312h0.029c3.021-0.006,5.795-1.416,7.59-3.844c0.982-1.217,2.154-3.248,2.158-6.035
		c0.02-1.654-0.484-3.447-1.387-4.945l-0.021-0.41c-0.006-0.629,0.156-1.314,0.273-1.568l0.232-0.377
		c0.713-1.158,1.105-1.797,5.527-2.053c1.68,0,3.645,0.232,5.84,0.684l9.961,2.102c-4.129,4.623-8.162,10.586-11.996,17.75
		c-1.139-0.078-2.434-0.094-3.643-0.047h-0.045c-9.119,0-14.836,5.18-16.859,7.402c-2.883,3.043-4.627,6.395-5.371,7.82
		l-0.336,0.631c-0.998,1.771-1.504,3.645-1.512,5.568c0.008,1.789,0.471,4.383,2.664,6.641l0.936,0.801
		c1.512,1.125,3.469,1.766,5.373,1.766h0.051c1.676-0.027,3.234-0.438,4.668-1.227l-1.244,2.68
		c-5.076,11.16-10.65,14.381-12.463,14.955c-0.26-1.99-1.145-3.879-2.484-5.279c-1.957-2.07-4.631-2.807-6.518-2.807
		c-0.615,0.018-1.23,0.045-1.855,0.152l-0.186,0.041c-3.953,0.99-6.459,3.246-7.85,7.074l-0.189,0.504
		c-0.654,2.283-1.008,4.891-1.02,7.545c0.006,3.633,0.688,6.842,2.078,9.803c1.812,3.914,5.17,7.25,9.207,9.16
		c3.414,1.621,7.213,2.422,11.629,2.438c11.855,0,28.686-6.623,37.363-25.244l1.137,0.076c0.598-0.043,1.277-0.053,1.941-0.172
		l0.361-0.09c3.486-0.793,6.941-2.25,10.293-4.32c-0.703,2.971-1.059,5.824-1.064,8.512c-0.01,6.207,1.826,11.598,5.309,15.586
		c3.637,4.211,9.229,6.629,15.346,6.629h0.254c8.084-0.117,16.469-3.531,24.934-10.148c3.543,1.473,7.416,2.232,11.529,2.268
		c1.723,0,3.473-0.17,5.223-0.498c0.461,0.676,0.891,1.238,1.332,1.75c3.641,4.211,9.23,6.629,15.342,6.629h0.256
		c8.086-0.117,16.477-3.531,24.938-10.148c3.545,1.473,7.418,2.232,11.523,2.268C328.225,274.219,329.62,274.115,331.01,273.914
		 M267.491,238.322c-1.734,3.609-3.945,7.184-6.762,10.941l-0.436,0.582l0.598,0.41c2.531,1.742,5.133,2.445,7.771,2.148
		c3.637-0.559,7.102-3.803,10.639-10.002c0.51-1.279,1.004-2.416,1.525-3.479c7.912-16.537,24.592-30,37.184-30
		c4.469,0,7.93,1.744,10.008,5.043c3.469,5.502,2.754,14.605-1.908,24.355c-1.73,3.598-3.945,7.176-6.764,10.941l-0.436,0.582
		l0.598,0.41c2.531,1.734,5.121,2.438,7.77,2.148c3.682-0.568,7.193-3.879,10.754-10.184l10.609-22.469h-3.865
		c-0.102,0-0.414,0-0.672-0.602c-0.564-1.32-0.262-4.393,1.777-6.535c1.234-1.387,2.871-2.094,4.859-2.094h2.332l8.91-18.859
		c2.371-4.865,9.301-7.033,13.223-6.451c0.508,0.084,1.174,0.291,1.443,0.803c0.285,0.543,0.041,1.309-0.209,1.852l-10.496,22.656
		h8.504l0.295,0.094c0.072,0.086,0.291,0.475,0.049,1.82c-0.695,2.914-3.855,7.316-7.035,7.316h-5.971l-11.238,24.535
		c-2.648,5.568-2.721,9.178-0.232,11.027c2.879,2.252,7.387,1.689,11.471-1.449c3.49-2.707,7.23-7.559,10.545-13.701l30.52-66.381
		c1.703-3.406,8.43-7.777,12.85-8.35c0.893-0.135,2.084-0.127,2.594,0.564c0.584,0.783,0.332,2.455-0.697,4.711l-22.801,49.5
		l3.615-4.566c0.049-0.07,5.24-6.613,12.369-6.135c2.543,0.117,4.709,1.158,6.258,3.01c1.965,2.352,2.762,5.803,2.246,9.738
		c-0.43,3.52-2.816,8.768-5.129,13.842c-3.318,7.277-6.453,14.158-4.922,17.654c0.424,0.967,1.178,1.629,2.242,1.977
		c5.391,1.676,11.232-2.738,17.324-13.207l14.963-31.602l0.795-0.545l11.99,0.012l-0.115,0.322l-15.129,33.59
		c-1.777,3.934-2.299,7.082-1.512,9.109c0.367,0.941,1.012,1.629,1.844,1.98c6.699,3.242,13.643-5.734,18.297-13.818l0.074-0.199
		c2.166-10.092,6.717-21.721,13.527-34.561c17.324-32.504,39.301-53.516,47.436-50.572c1.225,0.441,2.062,1.365,2.549,2.828
		c2.637,7.83-5.609,28.463-14.965,42.818c-9.275,14.059-15.893,20.598-23.541,26.586c-0.922,0.689-1.672,0.984-2.133,0.83
		l-0.703-1.018c-0.404-1.742,0.217-4.449,1.193-5.094c5.805-4.289,11.738-9.242,20.523-22.574
		c8.945-13.289,13.742-27.951,12.051-32.182c-0.395-1.008-1.074-1.35-1.57-1.461c-4.07-0.959-16.326,16.219-27.24,38.182
		c-9.404,19.07-18.314,42.461-15.127,50.922c0.576,1.531,1.529,2.58,2.824,3.117c4.619,1.949,9.914-0.643,16.199-7.879
		c3.574-3.867,5.719-7.68,7.252-10.738c2.229-9.895,6.729-21.26,13.359-33.766c17.32-32.504,39.408-53.516,47.428-50.572h0.008
		c1.223,0.441,2.059,1.365,2.545,2.828c2.637,7.83-5.611,28.463-14.963,42.818c-9.283,14.066-15.895,20.605-23.543,26.586
		c-0.914,0.684-1.631,0.992-2.129,0.83l-0.699-1.018c-0.406-1.742,0.215-4.449,1.188-5.094c5.809-4.293,11.742-9.25,20.523-22.574
		c9.211-13.688,13.746-27.945,12.059-32.182c-0.402-1.008-1.082-1.35-1.576-1.461c-4.135-0.959-16.322,16.219-27.246,38.182
		c-9.398,19.078-18.305,42.469-15.123,50.922c0.582,1.531,1.529,2.58,2.824,3.117c4.617,1.965,9.92-0.637,16.199-7.879
		c3.682-3.988,5.871-7.906,7.539-11.238l0.949-0.824c0.676-0.156,1.734,0.268,2.623,1.07c1.453,1.211,1.752,2.629,0.959,4.621
		c-1.57,4.514-3.727,8.352-6.406,11.404c-9.086,10.162-21.973,14.506-31.359,10.58c-3.324-1.375-5.439-4.562-6.283-9.479
		l-0.234-1.373l-0.959,1.016c-9,9.574-21.59,13.621-30.629,9.836c-3.32-1.369-5.434-4.545-6.283-9.449l-0.236-1.379l-0.953,1.023
		c-5.955,6.395-12.789,9.771-20.314,10.043c-5.807,0.289-10.316-2.336-12.131-6.859l-0.363-0.898l-0.734,0.629
		c-6.719,5.709-14.811,8.172-21.633,6.57c-3.285-0.809-5.852-2.842-7.219-5.719c-1.254-2.633-2.072-7.199,1.141-13.965l6.105-12.949
		c1.645-3.492,3.781-10.141,2.498-13.082c-0.309-0.709-0.816-1.195-1.445-1.395c-2.912-1-6.363,1.4-10.545,7.387
		c-2.686,3.887-5.316,8.434-7.039,12.172l-12.225,26.203c-0.342,0.793-0.408,0.883-1.252,0.883h-12.068l-0.225-0.008l0.125-0.309
		l1.111-2.418l-1.727,0.812c-4.156,1.953-8.811,2.945-13.834,2.945c-6.141,0-10.645-2.955-12.047-7.906l-0.223-0.789l-0.738,0.348
		c-6.809,3.156-15.254,1.266-19.738-2.137l-0.465-0.352l-0.43,0.398c-7.969,7.371-16.541,11.598-23.525,11.598
		c-6.463,0-10.689-3.496-11.912-9.848l-0.188-0.984l-0.855,0.52c-6.766,4.113-16.109,2.559-21.242-1.332l-0.465-0.352l-0.43,0.398
		c-7.969,7.371-16.541,11.598-23.521,11.598c-4.555,0-8.064-1.762-10.152-5.102c-3.443-5.512-2.678-14.59,2.053-24.301
		c7.914-16.537,24.592-30,37.184-30c4.469,0,7.93,1.744,10.008,5.047C272.874,219.471,272.155,228.576,267.491,238.322
		 M362.542,247.15l6.244-13.629h0.463l0.506-0.025l-3.814,8.303C364.874,243.705,363.709,245.537,362.542,247.15 M481.477,255.158
		c0.264-2.9,1.264-7.236,2.787-12.043h0.363c3.262-0.09,5.328-1.383,7.031-2.609l0.643-0.504c-0.273,1-0.51,1.922-0.713,2.797
		c-1.141,2.148-2.781,4.965-5.432,7.832C484.034,253.076,482.471,254.428,481.477,255.158 M452.153,192.41
		c2.912-5.553,8.428-10.244,12.037-10.244c1.064,0,1.85,0.404,2.336,1.209c1.055,1.748,0.59,4.961-1.209,8.391
		c-2.871,5.473-8.385,10.096-12.033,10.096c-1.082,0-1.875-0.406-2.355-1.203C449.899,198.961,450.37,195.803,452.153,192.41
		 M199.522,240.111c2.934-1.602,6.66-4.914,8.297-9.322l0.211-1.037l-0.07-0.311c-0.176-0.346-0.633-0.857-1.848-0.434
		c-1.426,0.844-3.248,1.521-6.922,0.928l-1.275-0.238l-0.766-0.186l-0.555-0.115l-7.205,16.656
		c-3.945,9.176-10.961,16.043-19.746,19.344c-6.541,2.457-13.492,2.609-18.139,0.385c-8.91-4.311-6.096-15.123-5.738-16.365
		c0.221-0.885,1.008-1.424,1.479-1.52l0.203-0.02l0.371,0.109l0.211,0.641c-0.158,2.693,2.158,6.77,6.244,7.27
		c5.713,1.062,15.006-3.547,22.568-19.887l7.088-15.223l-0.494-0.334c-1.445-0.967-2.486-1.533-3.414-1.842
		c-5.793-1.516-11.295,0.898-13.316,3.09c-0.549,0.555-1.098,0.768-1.348,0.578c-0.17-0.172-0.332-0.865,0.266-1.93l0.4-0.754
		c1.682-3.195,5.623-10.672,14.871-10.672c2.932-0.125,5.4,0.197,7.588,0.98l0.59,0.211l0.273-0.57
		c7.566-15.857,14.693-22.76,16.691-24.492c3.727-3.145,5.736-4.148,8.01-5.145c0.443-0.225,0.965-0.713,0.965-1.35l-0.072-0.307
		c-0.297-0.596-0.873-0.947-1.863-1.113c-2.115-0.209-2.318-0.254-3.648-0.564c-0.471-0.109-1.078-0.25-1.947-0.439l-19.346-4.07
		c-13.688-2.838-19.051,1.969-21.135,6.498c-1.666,3.633-1.311,8.107,0.086,10.033c0.482,0.598,0.051,1.113-0.197,1.391
		l-1.021,0.385c-1.639-1.23-6.779-6.02-4.254-15.857c3.027-11.961,16.213-22.051,33.055-18.254l21.234,4.941
		c15.834,3.656,29.35,0.656,35.99-1.461c4.168-1.234,7.158-2.266,9.215-3.586c0.77-0.543,1.344-0.674,1.543-0.557
		c0.133,0.068,0.273,0.369,0.273,1.002c0,0.809-0.447,1.439-1.07,2.307l-0.527,0.76c-2.18,2.818-9.359,10.201-16.488,13.766
		c-3.473,1.734-8.367,3.805-15.459,4.434l-0.203,0.051c-3.404,1.396-5.662,2.977-8.959,6.268
		c-5.443,5.604-12.568,20.209-17.59,31.471l-0.434,0.979h1.07l0.406,0.07l0.256,0.072c6.146,0.561,12.451-1.268,18.672-5.473
		l0.268-0.18c0.773-0.551,1.473-0.547,1.791-0.303l0.006,0.002c0.41,0.309,0.482,0.98,0.188,1.859l-0.113,0.377
		c-0.906,3.049-2.598,8.719-8.932,16.699c-7.057,8.906-13.143,11.311-17.617,12.404l-0.504-0.217
		C197.647,241.76,198.022,240.986,199.522,240.111"/>
	<path d="M591.174,252.49c-0.268-1.988-1.152-3.879-2.488-5.273c-1.951-2.078-4.611-2.811-6.496-2.811
		c-0.637,0-1.238,0.041-1.875,0.158c-3.969,0.973-6.508,3.152-7.93,6.816l-0.059-0.025l-0.229,0.803
		c-0.67,2.332-1.018,4.871-1.031,7.566c0.014,3.633,0.691,6.848,2.076,9.801c1.816,3.908,5.18,7.25,9.215,9.17
		c3.383,1.6,7.289,2.416,11.641,2.424c11.848,0,28.676-6.625,37.355-25.246c0.979,0.137,2.01,0.105,3.064-0.09l0.373-0.086
		c5.652-1.301,14.008-4.939,21.949-14.891c-1.633,6.219-2.469,11.891-2.494,16.91c0.01,5.182,0.861,9.484,2.596,13.156
		c1.963,4.203,5.406,7.547,9.428,9.168c3.234,1.359,6.814,2.043,10.646,2.043c1.051-0.004,2.129-0.072,3.322-0.207
		c-1.537,1.672-2.814,3.457-3.873,5.387c-2.021,3.842-3.047,7.721-3.047,11.518c-0.035,4.559,1.635,9.006,4.576,12.201
		c2.842,3.145,6.971,5.295,11.637,6.059c1.57,0.234,3.104,0.35,4.688,0.35h0.293c10.088,0,23.213-4.967,29.801-18.896l7.166-15.285
		c7.402-2.09,13.617-4.703,18.979-7.971l0.68,0.574c5.109,3.967,11.678,5.982,19.533,5.994c13.715,0,26.193-5.355,34.234-14.711
		l0.127-0.154c1.006-1.23,1.9-2.381,2.701-3.479c0.516,3.303,1.904,7.439,5.383,10.967c3.922,4.002,9.805,6.209,16.555,6.213
		l0.203-0.004c3.992-0.027,7.852-0.912,11.77-2.711c0.84,0.551,1.648,1,2.473,1.383c3.773,1.729,7.902,2.605,12.266,2.605
		c4.004-0.012,8.193-0.736,12.469-2.145c2.219,0.705,4.598,1.062,7.08,1.062h0.061c9.508-0.098,17.18-4.578,21.984-8.352
		c10.592-8.637,15.062-19.367,16.492-23.574c0.41-1.164,0.641-2.535,0.637-3.857c-0.062-4.658-2.547-7.771-4.615-9.562l-0.021-0.018
		c-2.453-1.953-4.713-3.193-8.418-3.346c-1.615,0.006-3.074,0.363-4.453,1.088c-1.449,0.734-2.775,2.047-3.613,3.523
		c-0.711-2.16-1.717-4.25-2.994-6.227c-1.336-2.074-2.701-3.785-3.791-5.164c-0.711-0.891-1.328-1.67-1.777-2.34
		c1.293-1.141,2.949-2.848,4.139-5.271c1.416-2.596,2.076-5.014,2.092-7.582c0.188-4.018-2.348-8.537-5.871-10.514l-0.355-0.207
		c-2.035-1.104-4.383-1.648-6.793-1.668c-6.836,0-13.051,4.762-15.148,11.625c-0.094,0.26-0.197,0.562-1.73,3.395
		c-3.482,6.367-8.391,13.992-13.068,20.373l3.51-7.6c0.662-1.52,0.967-2.912,0.967-4.359c0.096-4.344-3.174-7.848-5.59-8.982
		l-6.971-3.568c-1.762-0.885-3.758-1.371-5.627-1.371c-1.088-0.008-2.121,0.133-3.178,0.393c-0.371-0.545-0.777-1.084-1.211-1.6
		c-2.678-3.164-6.984-5.109-11.273-5.109c-1.084-0.012-2.121,0.07-3.133,0.254c-5.604,1.006-10.27,4.445-12.938,9.504
		c-0.848-0.934-1.754-1.684-2.699-2.227c-3.797-2.344-7.594-2.699-10.826-2.744c-12.604,0.154-23.004,7.207-30.193,14.088
		l0.176-0.395c0.465-0.902,0.91-2.021,0.992-4.047c0.145-2.016-1.08-5.164-3.293-6.723c-2.305-1.695-4.35-1.738-5.344-1.754h-10.326
		c-2.689,0.004-4.664,1.109-5.859,2.051c-0.996,0.822-1.816,1.668-2.494,2.967l-0.023-0.012l-1.055,2.33
		c-0.453-1.967-1.266-3.748-2.416-5.324c-1.307-1.822-3.244-3.309-5.623-4.33c2.682-4.811,5.113-9.842,7.064-14.604
		c3.764-9.332,5.473-16.174,5.533-22.191c-0.014-2.121-0.207-4.941-1.57-7.902c-1.316-2.996-4.139-5.596-7.168-6.617
		c-1.354-0.504-2.887-0.764-4.445-0.764h-0.059c-4.949,0.107-8.932,2.086-13.398,5.025c-1.311,0.902-2.664,1.93-4.113,3.123
		c-0.125-1.477-0.537-3.145-1.801-4.928c-1.566-2.316-4.734-3.656-6.93-3.656l-0.326,0.01c-2.807,0.105-4.381,0.949-5.613,1.725
		l-0.088-0.066l-0.355,0.352l-0.152,0.09l-0.004,0.012c-0.836,0.475-3.244,1.41-6.797,2.428c-5.801,1.842-12.15,2.814-18.361,2.814
		c-4.482,0-8.932-0.498-13.219-1.482l-21.223-4.953c-3.082-0.693-6.164-1.047-9.178-1.047
		c-19.043,0.078-31.074,13.318-34.188,25.582c-0.629,2.428-0.953,4.861-0.953,7.236c-0.047,11.693,8.082,17.424,8.406,17.646
		l0.598,0.396c1.438,0.887,3.158,1.373,4.828,1.373h0.027c2.992-0.006,5.85-1.463,7.617-3.873c0.965-1.203,2.117-3.223,2.137-6.006
		c0.012-1.705-0.482-3.459-1.395-4.957l-0.02-0.4c-0.006-0.623,0.16-1.309,0.281-1.566l0.238-0.387
		c0.715-1.152,1.104-1.791,5.512-2.043c1.691,0,3.664,0.229,5.852,0.682l9.955,2.098c-4.135,4.629-8.168,10.596-11.994,17.76
		c-1.18-0.086-2.465-0.102-3.645-0.047h-0.041c-9.131,0-14.842,5.174-16.865,7.395c-2.863,3.029-4.555,6.254-5.363,7.805
		l-0.344,0.65c-0.992,1.734-1.516,3.658-1.516,5.564c0.008,1.793,0.475,4.398,2.691,6.658l0.875,0.75
		c1.514,1.146,3.492,1.805,5.43,1.805h0.031c1.672-0.029,3.236-0.443,4.668-1.229l-1.246,2.68
		C598.553,248.705,592.983,251.918,591.174,252.49 M711.307,201.885c-9.271,14.057-15.883,20.598-23.543,26.586
		c-0.91,0.684-1.641,0.994-2.129,0.83l-0.697-1.018c-0.404-1.742,0.213-4.445,1.186-5.094c5.801-4.283,11.734-9.234,20.529-22.574
		c9.209-13.691,13.744-27.947,12.057-32.18c-0.406-1.008-1.078-1.352-1.57-1.461l-0.34-0.037c-4.398,0-16.27,16.803-26.91,38.217
		c-9.402,19.062-18.311,42.453-15.123,50.922c0.576,1.531,1.533,2.578,2.826,3.119c4.617,1.947,9.906-0.639,16.191-7.881
		c2.299-2.479,4.27-5.227,6.037-8.408l1.096-2.041l0.438-0.82l1.715-3.113c2.869-5.215,5.834-10.607,7.299-14.369
		c0.865-2.455,1.635-5.447-0.035-6.697c-2.154-1.984-0.885-4.633-0.469-5.363c1.635-2.529,4.518-3.992,7.334-3.766
		c1.984,0.238,3.441,0.99,4.332,2.23c1.494,2.078,1.225,5.258,0.742,7.562c-0.992,4.906-5.004,13.418-8.234,20.26
		c-2.615,5.555-4.684,9.943-5.012,11.893c-0.41,2.242,0.289,3.658,0.945,4.443c1.076,1.291,2.68,1.756,3.818,1.756
		c1.889,0,4.84-0.902,8.197-5.348c7.414-16.436,17.445-38.539,17.473-38.609l0.803-0.549l10.287,0.018l-0.162,0.324l-22.131,51.164
		l1.684-0.816c0.805-0.391,1.801-0.777,2.949-1.225c4.387-1.723,11.027-4.318,16.188-10.869l0.133-0.164l0.016-0.211
		c1.379-18.406,22.172-39.381,39.027-39.381c5.812,0,8.758,2.213,8.758,6.572c0,13.75-19.262,28.348-32.523,32.352l-0.449,0.141
		l-0.186,2.098c-0.141,2.941,0.561,5.234,2.08,6.828c1.658,1.744,4.277,2.625,7.775,2.625c6.07,0,12.295-3.074,17.51-8.639
		c2.646-2.65,4.32-5.463,6.098-8.439l0.855-1.441l0.219-0.414c1.369-2.561,3.434-6.439,6.045-11.854
		c1.736-3.451,3.607-7.854,4.688-10.678l0.143-0.373l-0.25-0.311c-0.543-0.674-0.865-1.703-0.865-2.795
		c-0.264-4.979,3.248-9.516,8.002-10.336c2.27-0.389,4.285,0.092,5.797,1.369c1.564,1.326,2.268,3.211,2.277,4.375
		c-0.152,0.912-0.176,1.311,0.062,2.172c0.414,0.826,1.762,1.797,3.836,1.037c1.227-0.609,2.41-1.775,2.385-1.775
		c1.775-1.086,3.27-1.266,4.699-0.555l6.818,3.48c1.285,0.719,1.152,1.498,0.867,2.154l-10.475,22.693
		c-3.342,7.41-4.322,12.008-3.068,14.5c0.508,1.004,1.359,1.637,2.531,1.889c2.488,0.529,5.025-0.082,7.58-1.869l0.246-0.168
		l0.041-0.295c0.516-3.283,1.916-5.979,4.414-8.475c7.586-7.434,17.658-22.387,23.682-33.32c1.795-3.289,2.074-4.008,2.391-4.93
		c0.705-2.379,2.268-4.184,4.408-5.072c1.777-0.74,3.727-0.705,5.176,0.08c3.094,1.895,1.268,5.662,0.617,6.805
		c-0.793,1.582-1.797,2.414-2.758,3.223l-0.869,0.777c-0.951,0.941-1.943,1.918-2.4,3.719c-0.547,2.441,0.598,3.93,1.703,5.375
		l0.732,0.988c0.705,1.031,1.488,2.02,2.318,3.062c2.945,3.721,5.99,7.566,5.99,13.711c0,6.605-2.32,11.207-4.846,15.205
		c-0.309,0.527-0.885,1.488-0.254,2.225c0.367,0.574,1.279,0.664,2.555,0.234c2.346-0.9,5.387-3.312,8.137-6.461
		c4.523-5.422,8.43-12.898,9.27-14.863l0.008-0.012c0.119-0.32,0.855-0.305,1.676,0.012c1.773,0.678,4.008,2.797,3.133,5.18
		c-0.658,1.953-4.383,12.057-13.742,19.605c-6.258,5.008-16.195,8.672-23.234,4.873l-0.285-0.152l-0.309,0.127
		c-5.52,2.246-13.629,4.242-20.967,0.883c-1.775-0.832-3.281-2.076-4.475-3.693l-0.402-0.541l-0.555,0.383
		c-4.195,2.895-8.391,4.367-12.465,4.367c-5.574,0-9.695-1.83-11.926-5.293c-2.486-3.871-2.473-9.709,0.051-15.242l9.176-19.955
		c0.65-1.557,1.859-4.471,0.111-6.012c-1.688-1.514-2.543-1.654-5.018-0.881c-3,0.883-5.271,2.777-6.406,5.336
		c-0.025,0.055-2.492,5.703-4.654,10.02c-3.299,7.023-8.098,15.625-9.826,17.611l-0.168,0.178l-0.023,0.039
		c-1.08,1.504-2.133,2.83-2.824,3.684c-6.365,7.42-16.461,11.676-27.691,11.676c-8.738,0-15.199-3.184-18.176-8.973l-0.4-0.777
		l-0.668,0.57c-6.096,5.18-14.51,9.047-25.717,11.826l-0.322,0.08l-8.871,18.91c-6.131,13.025-19.424,14.654-25.576,13.717
		c-3.77-0.631-6.613-2.52-8.008-5.322c-1.629-3.27-1.238-7.531,1.098-11.992c4.055-7.883,17.926-13.564,26.215-16.961
		c2.135-0.875,3.975-1.629,5.182-2.227l0.211-0.109l0.104-0.211c0.283-0.582,1.316-2.777,2.766-5.98l1.254-2.783l-2.332,1.963
		c-3.676,3.078-8.516,5.074-12.344,5.074c-3.18,0-5.818-1.562-7.25-4.277l-0.402-0.762l-0.66,0.557
		c-8.674,7.283-19.361,9.861-27.207,6.572c-2.52-1.043-4.363-3.137-5.477-6.219c-3.775-10.473,1.344-30.621,13.684-53.902
		c17.311-32.5,39.312-53.48,47.434-50.566c1.223,0.441,2.051,1.363,2.547,2.822C728.913,166.889,720.663,187.525,711.307,201.885
		 M695.79,240.131c-0.375,0.543-0.635,1.018-0.795,1.422c-0.285,0.574-0.598,1.148-0.922,1.746l-0.293,0.551
		c-1.465,2.629-3.006,4.777-4.863,6.781c-2.113,2.426-3.676,3.785-4.676,4.521c0.266-2.9,1.26-7.236,2.781-12.037l0.359-0.008
		c3.27-0.082,5.34-1.379,7.037-2.602c0.691-0.541,1.381-1.092,2.076-1.666L695.79,240.131z M617.069,220.781l-0.496-0.326
		c-1.48-0.988-2.492-1.539-3.412-1.844c-5.783-1.52-11.285,0.898-13.322,3.09c-0.562,0.559-1.092,0.762-1.34,0.58
		c-0.172-0.174-0.336-0.869,0.26-1.934l0.389-0.738c1.686-3.199,5.623-10.686,14.891-10.686c2.922-0.131,5.398,0.195,7.584,0.98
		l0.592,0.211l0.27-0.57c5.109-10.701,11.35-19.863,16.693-24.49c3.715-3.145,5.73-4.146,8.01-5.148
		c0.449-0.225,0.965-0.713,0.965-1.346l-0.074-0.316c-0.301-0.588-0.875-0.938-1.863-1.105c-2.109-0.207-2.316-0.256-3.645-0.564
		c-0.475-0.109-1.078-0.246-1.957-0.439l-19.34-4.072c-11-2.275-18.105-0.088-21.137,6.5c-1.664,3.643-1.312,8.115,0.088,10.027
		c0.48,0.604,0.053,1.123-0.189,1.395l-1.027,0.387c-1.633-1.236-6.777-6.031-4.254-15.857
		c3.031-11.955,16.205-22.029,33.055-18.254l21.234,4.941c15.834,3.658,29.344,0.648,35.98-1.461
		c4.172-1.232,7.164-2.262,9.223-3.586c0.758-0.535,1.34-0.68,1.545-0.555c0.135,0.068,0.279,0.367,0.279,0.996
		c0,0.82-0.457,1.451-1.088,2.326l-0.521,0.744c-2.174,2.816-9.34,10.195-16.484,13.768c-3.473,1.729-8.363,3.803-15.457,4.434
		l-0.209,0.049c-3.41,1.406-5.67,2.984-8.953,6.27c-5.455,5.609-12.576,20.211-17.59,31.469l-0.434,0.979h1.066l0.422,0.072
		l0.24,0.07c6.191,0.561,12.457-1.273,18.676-5.477l0.268-0.176c0.771-0.555,1.475-0.547,1.793-0.297
		c0.41,0.305,0.479,0.973,0.186,1.855l-0.115,0.379c-0.904,3.051-2.596,8.723-8.924,16.697
		c-7.062,8.906-13.148,11.314-17.625,12.404l-0.5-0.207c-0.035-0.188,0.344-0.971,1.84-1.844c2.934-1.6,6.66-4.904,8.297-9.322
		l0.207-1.037l-0.066-0.305c-0.172-0.346-0.598-0.887-1.85-0.434c-1.42,0.832-3.232,1.523-6.92,0.92l-1.277-0.234l-0.77-0.188
		l-0.549-0.115l-7.209,16.656c-3.947,9.176-10.965,16.043-19.746,19.342c-6.543,2.459-13.488,2.6-18.137,0.387
		c-8.871-4.295-6.096-15.123-5.742-16.369c0.219-0.883,1.008-1.42,1.484-1.52l0.207-0.016l0.363,0.109l0.211,0.637
		c-0.158,2.699,2.152,6.773,6.24,7.273c5.684,1.062,15.01-3.547,22.576-19.887L617.069,220.781z M670.155,207.912
		c-0.879,1.672-1.754,3.375-2.645,5.182c-0.672-1.641-1.758-3.076-3.062-4.006c-1.635-1.219-3.652-1.889-5.684-1.889h-0.059
		c-2.199,0.006-4.355,0.717-6.238,2.057l-0.293,0.199c0.598-1.148,1.184-2.256,1.768-3.324c3.025-5.613,5.719-9.457,7.045-10.77
		c2.555-2.484,3.467-3.125,5.117-3.891c5.988-0.672,11.609-2.365,17.203-5.188l0.113-0.059c-4.645,6.641-9.09,13.92-13.266,21.68
		V207.912z"/>
	<path fill="#FFFFFF" d="M723.733,156.242c-8.121-2.916-30.123,18.064-47.432,50.568c-12.342,23.277-17.461,43.422-13.686,53.896
		c1.113,3.088,2.957,5.178,5.477,6.223c7.844,3.283,18.533,0.709,27.211-6.574l0.656-0.553l0.402,0.762
		c1.432,2.715,4.074,4.273,7.25,4.273c3.828,0,8.668-1.996,12.344-5.078l2.332-1.957l-1.254,2.781
		c-1.449,3.205-2.48,5.398-2.766,5.98l-0.104,0.213l-0.211,0.105c-1.207,0.598-3.047,1.354-5.182,2.229
		c-8.289,3.395-22.164,9.078-26.213,16.957c-2.338,4.469-2.729,8.727-1.1,11.996c1.395,2.803,4.238,4.691,8.008,5.322
		c6.152,0.936,19.445-0.693,25.576-13.713l8.871-18.918l0.322-0.074c11.207-2.779,19.621-6.646,25.717-11.832l0.666-0.562l0.4,0.777
		c2.979,5.781,9.439,8.973,18.178,8.973c11.234,0,21.326-4.26,27.691-11.68c0.691-0.854,1.744-2.178,2.824-3.684l0.023-0.039
		l0.168-0.178c1.727-1.99,6.531-10.588,9.826-17.611c2.162-4.316,4.629-9.969,4.654-10.021c1.135-2.561,3.406-4.453,6.406-5.338
		c2.475-0.77,3.33-0.633,5.02,0.883c1.75,1.547,0.537,4.455-0.113,6.014l-9.176,19.951c-2.523,5.537-2.537,11.375-0.051,15.242
		c2.23,3.467,6.352,5.297,11.926,5.297c4.074,0,8.27-1.469,12.465-4.367l0.555-0.387l0.402,0.545
		c1.193,1.619,2.699,2.865,4.475,3.693c7.338,3.359,15.447,1.363,20.967-0.887l0.305-0.123l0.289,0.15
		c7.039,3.805,16.977,0.137,23.234-4.873c9.357-7.549,13.084-17.65,13.742-19.6c0.875-2.385-1.359-4.504-3.133-5.186
		c-0.824-0.314-1.557-0.33-1.676-0.01l-0.008,0.01c-0.84,1.969-4.746,9.443-9.27,14.861c-2.75,3.15-5.791,5.564-8.137,6.467
		c-1.275,0.428-2.188,0.334-2.553-0.234c-0.633-0.738-0.057-1.701,0.256-2.227c2.52-3.998,4.842-8.602,4.842-15.205
		c0-6.145-3.045-9.99-5.99-13.711c-0.83-1.043-1.615-2.033-2.318-3.064l-0.732-0.986c-1.105-1.441-2.25-2.93-1.703-5.375
		c0.457-1.797,1.449-2.777,2.402-3.717l0.871-0.779c0.957-0.805,1.961-1.641,2.754-3.219c0.65-1.146,2.477-4.918-0.617-6.812
		c-1.449-0.779-3.398-0.814-5.176-0.076c-2.141,0.891-3.703,2.689-4.41,5.068c-0.316,0.926-0.594,1.645-2.389,4.93
		c-6.023,10.934-16.096,25.891-23.682,33.32c-2.498,2.5-3.898,5.195-4.414,8.48l-0.043,0.291l-0.244,0.174
		c-2.555,1.783-5.092,2.398-7.58,1.865c-1.172-0.252-2.023-0.889-2.531-1.893c-1.254-2.488-0.273-7.086,3.068-14.496l10.475-22.693
		c0.289-0.656,0.422-1.436-0.867-2.15l-6.818-3.48c-1.43-0.715-2.924-0.539-4.699,0.551c0.025,0-1.158,1.168-2.385,1.775
		c-2.078,0.756-3.422-0.209-3.836-1.037c-0.236-0.861-0.215-1.26-0.062-2.172c-0.012-1.164-0.713-3.049-2.277-4.373
		c-1.508-1.277-3.527-1.76-5.797-1.369c-4.754,0.816-8.266,5.359-8.002,10.334c0,1.09,0.322,2.121,0.865,2.795l0.248,0.309
		l-0.141,0.371c-1.08,2.83-2.951,7.227-4.686,10.684c-2.613,5.41-4.678,9.289-6.049,11.855l-0.217,0.412l-0.855,1.436
		c-1.777,2.98-3.451,5.795-6.098,8.443c-5.215,5.561-11.439,8.637-17.51,8.637c-3.498,0-6.117-0.879-7.771-2.623
		c-1.523-1.594-2.225-3.891-2.084-6.828l0.186-2.094l0.449-0.145c13.262-4.004,32.523-18.598,32.523-32.35
		c0-4.361-2.945-6.576-8.758-6.576c-16.855,0-37.648,20.979-39.027,39.383l-0.016,0.211l-0.133,0.164
		c-5.16,6.551-11.801,9.146-16.188,10.869c-1.148,0.451-2.145,0.838-2.949,1.229l-1.684,0.812l22.131-51.164l0.164-0.324
		l-10.291-0.018l-0.805,0.551c-0.02,0.064-10.055,22.172-17.469,38.611c-3.357,4.441-6.305,5.344-8.197,5.344
		c-1.139,0-2.742-0.461-3.818-1.756c-0.656-0.787-1.359-2.201-0.945-4.441c0.328-1.951,2.396-6.34,5.012-11.893
		c3.23-6.844,7.242-15.355,8.234-20.262c0.482-2.305,0.752-5.484-0.742-7.562c-0.891-1.242-2.344-1.996-4.332-2.23
		c-2.816-0.229-5.699,1.236-7.334,3.762c-0.42,0.734-1.682,3.383,0.469,5.363c1.67,1.254,0.9,4.246,0.035,6.703
		c-1.467,3.76-4.43,9.152-7.299,14.367l-1.715,3.115l-0.438,0.818l-1.096,2.043c-1.764,3.176-3.738,5.926-6.037,8.41
		c-6.285,7.238-11.574,9.822-16.191,7.875c-1.291-0.537-2.25-1.586-2.826-3.117c-3.188-8.471,5.721-31.861,15.123-50.918
		c10.641-21.416,22.512-38.219,26.912-38.219l0.334,0.031c0.496,0.115,1.172,0.457,1.574,1.465
		c1.688,4.232-2.848,18.49-12.057,32.18c-8.795,13.34-14.725,18.291-20.529,22.574c-0.973,0.648-1.59,3.352-1.186,5.098l0.697,1.014
		c0.488,0.162,1.219-0.146,2.129-0.832c7.662-5.986,14.271-12.525,23.547-26.584c9.352-14.359,17.602-34.996,14.969-42.82
		C725.784,157.604,724.956,156.68,723.733,156.242 M705.1,286.502c-2.34,4.533-5.086,6.971-8.891,7.914
		c-0.902,0.25-1.953,0.416-3.01,0.416c-1.713,0-3.436-0.434-4.545-1.641c-0.816-0.885-1.572-2.533-0.535-5.355
		c2.043-5.764,16.332-10.576,20.664-11.912l1.502-0.469L705.1,286.502z M847.897,259.33c1.793,0.379,7.496,0.27,9.824-5.41
		c1.908-4.445,0.148-6.984-1.66-8.332l-0.66-0.49l0.59-0.572c4.611-4.465,9.316-11.734,11.936-16.969l0.596-1.207l0.635,1.191
		c2.461,4.602,2.988,11.918,1.373,19.092v0.014c-2.535,10.648-8.662,16.961-16.43,16.961h-0.254c-2.32,0-5.467-1.141-6.699-3.246
		l-0.809-1.377L847.897,259.33z M765.78,241.441c2.367-6.492,14.613-26.93,22.91-26.93c1.951,0,3.164,1.16,3.164,3.023
		c0,9.924-16.934,20.977-25.129,24.775l-1.52,0.707L765.78,241.441z"/>
	<path fill="#FFFFFF" d="M259.395,208.924c-12.592,0-29.273,13.461-37.186,30.004c-4.729,9.703-5.498,18.789-2.055,24.297
		c2.092,3.34,5.598,5.105,10.156,5.105c6.977,0,15.551-4.234,23.521-11.605l0.43-0.395l0.461,0.355
		c5.137,3.887,14.479,5.439,21.244,1.326l0.855-0.518l0.188,0.98c1.221,6.357,5.451,9.855,11.914,9.855
		c6.98,0,15.555-4.234,23.525-11.605l0.43-0.395l0.461,0.355c4.486,3.398,12.934,5.287,19.74,2.133l0.738-0.348l0.223,0.785
		c1.4,4.955,5.904,7.91,12.045,7.91c5.023,0,9.682-0.992,13.838-2.949l1.727-0.809l-1.111,2.418l-0.127,0.307l0.223,0.006h12.07
		c0.844,0,0.91-0.086,1.254-0.879l12.225-26.203c1.721-3.734,4.354-8.285,7.035-12.172c4.186-5.988,7.635-8.387,10.549-7.387
		c0.629,0.203,1.133,0.686,1.441,1.391c1.289,2.949-0.852,9.59-2.496,13.082l-6.107,12.953c-3.213,6.766-2.391,11.328-1.141,13.961
		c1.369,2.881,3.934,4.914,7.223,5.723c6.822,1.602,14.914-0.863,21.633-6.57l0.732-0.625l0.361,0.896
		c1.818,4.523,6.326,7.146,12.131,6.857c7.525-0.271,14.359-3.648,20.314-10.043l0.955-1.027l0.238,1.379
		c0.848,4.906,2.961,8.086,6.279,9.455c9.041,3.785,21.631-0.26,30.629-9.838l0.959-1.016l0.236,1.373
		c0.844,4.916,2.963,8.107,6.283,9.48c9.387,3.92,22.275-0.422,31.359-10.582c2.682-3.053,4.836-6.889,6.406-11.402
		c0.793-1.994,0.492-3.41-0.957-4.623c-0.891-0.805-1.949-1.227-2.625-1.072l-0.949,0.83c-1.666,3.33-3.857,7.25-7.539,11.238
		c-6.279,7.242-11.582,9.844-16.199,7.875c-1.293-0.537-2.244-1.586-2.824-3.117c-3.184-8.453,5.725-31.844,15.123-50.922
		c10.924-21.965,23.115-39.139,27.248-38.18c0.492,0.111,1.172,0.453,1.574,1.461c1.691,4.236-2.848,18.494-12.059,32.18
		c-8.777,13.328-14.715,18.281-20.523,22.574c-0.973,0.648-1.59,3.352-1.188,5.098l0.699,1.014c0.5,0.164,1.215-0.15,2.129-0.832
		c7.65-5.979,14.26-12.516,23.543-26.584c9.355-14.357,17.6-34.99,14.965-42.82c-0.488-1.461-1.326-2.387-2.547-2.824h-0.008
		c-8.02-2.945-30.109,18.068-47.426,50.57c-6.633,12.506-11.129,23.871-13.361,33.766c-1.529,3.059-3.674,6.875-7.254,10.742
		c-6.283,7.234-11.576,9.822-16.199,7.875c-1.295-0.537-2.248-1.586-2.822-3.117c-3.188-8.465,5.723-31.855,15.125-50.922
		c10.916-21.965,23.172-39.139,27.246-38.18c0.496,0.111,1.172,0.453,1.566,1.461c1.691,4.227-3.107,18.889-12.051,32.18
		c-8.785,13.332-14.719,18.285-20.523,22.574c-0.979,0.648-1.6,3.352-1.195,5.098l0.707,1.014c0.457,0.158,1.207-0.141,2.129-0.832
		c7.652-5.986,14.266-12.521,23.543-26.584c9.355-14.357,17.598-34.99,14.965-42.82c-0.488-1.461-1.328-2.387-2.547-2.824
		c-8.141-2.945-30.115,18.068-47.439,50.57c-6.807,12.84-11.361,24.465-13.523,34.561l-0.08,0.201
		c-4.652,8.084-11.594,17.055-18.293,13.816c-0.832-0.352-1.479-1.043-1.844-1.982c-0.785-2.025-0.266-5.178,1.514-9.105
		l15.123-33.592l0.117-0.322l-11.992-0.012l-0.789,0.549l-14.965,31.596c-6.09,10.471-11.936,14.889-17.326,13.207
		c-1.064-0.35-1.814-1.01-2.24-1.979c-1.529-3.492,1.602-10.373,4.922-17.652c2.311-5.074,4.701-10.322,5.129-13.84
		c0.518-3.934-0.279-7.391-2.248-9.742c-1.549-1.846-3.711-2.891-6.258-3.008c-7.125-0.473-12.318,6.07-12.365,6.133l-3.617,4.574
		l22.801-49.506c1.031-2.252,1.279-3.928,0.699-4.709c-0.512-0.689-1.701-0.697-2.594-0.566c-4.422,0.572-11.148,4.941-12.85,8.35
		l-30.52,66.385c-3.318,6.145-7.059,10.99-10.549,13.697c-4.084,3.141-8.59,3.705-11.467,1.453
		c-2.488-1.85-2.416-5.461,0.232-11.027l11.238-24.539h5.971c3.178,0,6.338-4.4,7.033-7.314c0.242-1.344,0.025-1.732-0.051-1.82
		l-0.293-0.094h-8.504l10.494-22.658c0.254-0.541,0.494-1.305,0.209-1.848c-0.27-0.512-0.934-0.721-1.443-0.803
		c-3.918-0.586-10.848,1.586-13.221,6.449l-8.91,18.859h-2.332c-1.99,0-3.627,0.703-4.861,2.094
		c-2.037,2.141-2.338,5.219-1.777,6.531c0.258,0.604,0.57,0.604,0.676,0.604h3.861l-10.605,22.467
		c-3.564,6.305-7.076,9.621-10.754,10.184c-2.652,0.297-5.242-0.412-7.77-2.145l-0.602-0.412l0.436-0.584
		c2.822-3.762,5.037-7.34,6.764-10.936c4.666-9.75,5.377-18.855,1.91-24.357c-2.08-3.297-5.539-5.043-10.006-5.043
		c-12.592,0-29.275,13.461-37.186,30.004c-0.518,1.059-1.016,2.191-1.523,3.475c-3.539,6.199-7.006,9.443-10.639,9.998
		c-2.639,0.303-5.244-0.406-7.771-2.145l-0.602-0.412l0.436-0.584c2.816-3.758,5.031-7.328,6.764-10.936
		c4.664-9.748,5.381-18.854,1.912-24.354C267.321,210.67,263.862,208.924,259.395,208.924 M316.407,221.098l0.436-0.701l0.617,0.555
		c3.086,2.76,2.686,9.863-0.998,17.68l-0.01,0.012c-0.297,0.594-0.627,1.184-0.961,1.779c-0.32,0.568-0.645,1.139-0.928,1.713
		l-0.721,1.449l-0.555-1.52c-0.715-1.949-1.062-3.693-1.062-5.328C311.938,233.016,313.581,225.645,316.407,221.098
		 M293.967,238.037c3.42-6.977,8.812-13.328,14.078-16.586l2.361-1.457l-1.395,2.395c-2.686,4.637-3.873,11.547-4.125,14.555
		c-0.453,4.545,0.549,9.256,2.82,13.266l0.266,0.467l-0.393,0.375c-3.93,3.785-7.816,5.869-10.949,5.869
		c-1.965,0-3.525-0.828-4.52-2.395C290.022,251.229,290.733,244.912,293.967,238.037 M250.395,222.389
		c-2.686,4.637-3.873,11.547-4.125,14.555c-0.455,4.543,0.547,9.25,2.82,13.266l0.266,0.467l-0.393,0.375
		c-3.934,3.785-7.82,5.869-10.945,5.869c-1.967,0-3.529-0.828-4.521-2.395c-2.092-3.297-1.381-9.613,1.854-16.488
		c3.422-6.977,8.816-13.332,14.078-16.586l2.361-1.457L250.395,222.389z M257.838,238.631l-0.006,0.012
		c-0.295,0.598-0.633,1.195-0.967,1.793c-0.318,0.562-0.639,1.133-0.92,1.699l-0.725,1.451l-0.555-1.521
		c-0.711-1.959-1.059-3.705-1.059-5.328c-0.287-3.721,1.355-11.092,4.18-15.639l0.434-0.701l0.619,0.555
		C261.928,223.717,261.528,230.822,257.838,238.631"/>
	<path fill="#FFFFFF" d="M453.282,201.861c3.652,0,9.166-4.623,12.037-10.096c1.801-3.432,2.264-6.645,1.205-8.391
		c-0.486-0.805-1.268-1.213-2.334-1.213c-3.609,0-9.123,4.695-12.039,10.248c-1.781,3.393-2.25,6.553-1.225,8.248
		C451.407,201.457,452.202,201.861,453.282,201.861"/>
	<path fill="#FFFFFF" d="M215.807,229.758c6.332-7.98,8.023-13.652,8.932-16.699l0.113-0.377c0.295-0.879,0.221-1.551-0.191-1.859
		l-0.002-0.002c-0.318-0.244-1.018-0.248-1.793,0.303l-0.27,0.18c-6.223,4.205-12.521,6.033-18.672,5.473l-0.252-0.072l-0.41-0.07
		h-1.068l0.432-0.979c5.021-11.262,12.15-25.867,17.59-31.471c3.297-3.291,5.559-4.873,8.963-6.268l0.201-0.047
		c7.092-0.633,11.984-2.703,15.457-4.438c7.133-3.564,14.311-10.943,16.49-13.766l0.527-0.76c0.621-0.867,1.07-1.494,1.07-2.307
		c0-0.633-0.141-0.934-0.273-1c-0.201-0.119-0.775,0.012-1.541,0.555c-2.057,1.32-5.053,2.35-9.217,3.586
		c-6.641,2.117-20.156,5.117-35.988,1.461l-21.234-4.939c-16.842-3.801-30.031,6.291-33.055,18.25
		c-2.525,9.84,2.615,14.629,4.254,15.859l1.02-0.387c0.246-0.275,0.678-0.791,0.199-1.393c-1.398-1.922-1.756-6.395-0.092-10.031
		c2.086-4.527,7.453-9.332,21.139-6.496l19.344,4.07c0.873,0.188,1.48,0.33,1.947,0.441c1.334,0.309,1.537,0.354,3.648,0.561
		c0.992,0.168,1.568,0.52,1.861,1.113l0.078,0.309c0,0.635-0.521,1.125-0.969,1.35c-2.27,0.996-4.279,2-8.008,5.145
		c-1.996,1.734-9.125,8.635-16.693,24.492l-0.27,0.572l-0.594-0.213c-2.186-0.783-4.652-1.105-7.584-0.98
		c-9.252,0-13.191,7.477-14.875,10.668l-0.402,0.756c-0.594,1.066-0.434,1.76-0.264,1.932c0.252,0.188,0.803-0.023,1.348-0.578
		c2.025-2.191,7.523-4.609,13.318-3.09c0.93,0.312,1.969,0.871,3.412,1.842l0.498,0.338l-7.092,15.219
		c-7.561,16.34-16.852,20.949-22.564,19.887c-4.088-0.5-6.404-4.576-6.246-7.27l-0.211-0.641l-0.369-0.109l-0.205,0.02
		c-0.469,0.096-1.256,0.635-1.48,1.52c-0.355,1.242-3.168,12.053,5.738,16.365c4.648,2.225,11.602,2.068,18.141-0.385
		c8.787-3.305,15.797-10.172,19.746-19.344l7.207-16.656l0.551,0.117l0.77,0.184l1.27,0.238c3.676,0.594,5.5-0.086,6.928-0.928
		c1.213-0.424,1.672,0.084,1.846,0.434l0.072,0.311l-0.213,1.037c-1.639,4.408-5.363,7.721-8.295,9.318
		c-1.5,0.877-1.875,1.656-1.84,1.838l0.502,0.221C202.665,241.072,208.749,238.666,215.807,229.758"/>
	<path fill="#FFFFFF" d="M587.403,255.896c-4.088-0.5-6.398-4.576-6.236-7.271l-0.215-0.639l-0.363-0.109l-0.207,0.02
		c-0.477,0.094-1.266,0.635-1.486,1.52c-0.35,1.246-3.127,12.066,5.742,16.365c4.652,2.209,11.592,2.068,18.139-0.385
		c8.785-3.305,15.799-10.172,19.746-19.344l7.209-16.652l0.549,0.113l0.773,0.184l1.273,0.238c3.688,0.605,5.5-0.094,6.92-0.922
		c1.252-0.451,1.682,0.086,1.85,0.434l0.07,0.305l-0.211,1.037c-1.637,4.416-5.365,7.725-8.297,9.318
		c-1.492,0.877-1.875,1.66-1.84,1.844l0.5,0.215c4.48-1.094,10.562-3.5,17.625-12.408c6.328-7.975,8.02-13.646,8.924-16.693
		l0.115-0.383c0.293-0.879,0.223-1.551-0.184-1.859c-0.32-0.246-1.023-0.254-1.795,0.303l-0.268,0.174
		c-6.219,4.207-12.484,6.035-18.672,5.477l-0.244-0.07l-0.422-0.072h-1.066l0.432-0.975c5.016-11.26,12.133-25.861,17.59-31.475
		c3.285-3.283,5.545-4.863,8.957-6.268l0.207-0.047c7.094-0.631,11.98-2.703,15.453-4.438c7.148-3.57,14.314-10.947,16.488-13.764
		l0.521-0.744c0.631-0.879,1.088-1.508,1.088-2.324c0-0.631-0.141-0.934-0.279-1c-0.205-0.125-0.787,0.018-1.545,0.555
		c-2.055,1.324-5.051,2.352-9.223,3.586c-6.637,2.111-20.146,5.117-35.979,1.461l-21.234-4.939
		c-16.852-3.779-30.025,6.295-33.057,18.25c-2.523,9.832,2.621,14.627,4.254,15.861l1.027-0.391c0.242-0.27,0.67-0.785,0.189-1.393
		c-1.4-1.912-1.756-6.387-0.088-10.029c3.035-6.586,10.137-8.773,21.137-6.496l19.34,4.07c0.879,0.191,1.482,0.33,1.953,0.441
		c1.332,0.309,1.539,0.354,3.645,0.561c0.992,0.168,1.566,0.52,1.863,1.107l0.078,0.314c0,0.633-0.516,1.123-0.961,1.348
		c-2.283,1.006-4.299,2.006-8.012,5.146c-5.346,4.633-11.59,13.789-16.695,24.492l-0.27,0.57l-0.594-0.211
		c-2.18-0.789-4.66-1.109-7.58-0.98c-9.27,0-13.207,7.486-14.893,10.686l-0.391,0.736c-0.59,1.068-0.43,1.762-0.262,1.938
		c0.252,0.176,0.781-0.023,1.344-0.582c2.037-2.191,7.539-4.611,13.322-3.09c0.92,0.307,1.932,0.855,3.412,1.842l0.496,0.33
		l-7.09,15.227C602.415,252.35,593.086,256.959,587.403,255.896"/>
	<path d="M688.12,287.836c-1.037,2.818-0.281,4.471,0.535,5.355c1.111,1.205,2.834,1.641,4.543,1.641
		c1.059,0,2.109-0.166,3.012-0.416c3.805-0.943,6.551-3.381,8.891-7.914l5.186-11.047l-1.502,0.469
		C704.456,277.26,690.163,282.072,688.12,287.836"/>
	<path d="M853.846,263.611h0.254c7.768,0,13.896-6.32,16.43-16.967v-0.01c1.615-7.176,1.088-14.492-1.373-19.094l-0.635-1.188
		l-0.598,1.203c-2.621,5.23-7.322,12.504-11.934,16.969l-0.586,0.572l0.656,0.486c1.811,1.348,3.568,3.895,1.664,8.336
		c-2.332,5.684-8.035,5.789-9.828,5.406l-1.557-0.34l0.807,1.375C848.379,262.471,851.526,263.611,853.846,263.611"/>
	<path d="M258.221,220.396l-0.436,0.703c-2.82,4.545-4.463,11.916-4.176,15.641c0,1.621,0.348,3.365,1.059,5.324l0.555,1.521
		l0.721-1.451c0.281-0.57,0.604-1.133,0.922-1.699c0.336-0.6,0.67-1.195,0.969-1.793l0.002-0.012
		c3.693-7.809,4.096-14.918,1.002-17.68L258.221,220.396z"/>
	<path d="M791.854,217.535c0-1.863-1.211-3.021-3.168-3.021c-8.293,0-20.535,20.436-22.902,26.928l-0.578,1.576l1.52-0.709
		C774.924,238.514,791.854,227.459,791.854,217.535"/>
	<path d="M296.629,256.916c3.135,0,7.021-2.078,10.951-5.867l0.393-0.373l-0.266-0.467c-2.271-4.008-3.275-8.719-2.82-13.266
		c0.252-3.012,1.439-9.918,4.125-14.555l1.395-2.395l-2.361,1.457c-5.266,3.262-10.658,9.607-14.078,16.582
		c-3.234,6.877-3.945,13.195-1.855,16.492C293.106,256.092,294.667,256.916,296.629,256.916"/>
	<path d="M313.288,242.064l0.555,1.516l0.721-1.441c0.285-0.578,0.605-1.152,0.928-1.719c0.336-0.594,0.666-1.184,0.963-1.777
		l0.006-0.008c3.688-7.82,4.088-14.924,1.002-17.684l-0.621-0.555l-0.436,0.701c-2.822,4.547-4.467,11.918-4.18,15.639
		C312.225,238.373,312.575,240.117,313.288,242.064"/>
	<path d="M235.35,238.033c-3.234,6.877-3.945,13.195-1.852,16.492c0.99,1.566,2.553,2.391,4.518,2.391
		c3.125,0,7.018-2.08,10.947-5.867l0.393-0.375l-0.266-0.465c-2.275-4.012-3.277-8.723-2.82-13.266
		c0.256-3.008,1.439-9.918,4.127-14.555l1.393-2.395l-2.361,1.457C244.167,224.707,238.776,231.061,235.35,238.033"/>
	<path d="M745.194,185.662c-1.047,1.965-1.217,3.949-0.49,5.74c0.826,2.033,2.777,3.713,5.227,4.49
		c1.006,0.316,1.982,0.457,2.906,0.457c4.014,0,7.125-2.656,8.262-5.031c0.873-1.797,0.717-2.992,0.436-3.676
		c-0.266-0.633-0.762-1.102-1.396-1.316c-1.354-0.447-3.117,0.094-3.674,1.691c-0.391,1.074,0.164,1.594,0.344,1.73l0.844,0.16
		l-0.02,0.053c-0.102,0.479-0.518,1.197-1.09,1.588c-1.098,0.721-2.498,1.375-4.688,0.727c-0.984-0.287-1.789-0.957-2.199-1.836
		c-0.426-0.889-0.414-1.895,0.02-2.912c1.477-3.377,5.529-3.975,7.193-3.346l1.254,0.492l1.002-0.086
		c0.812-0.689,1.242-1.859,1.293-2.654l-0.199-0.865c-0.086-0.094-0.631-0.434-1.609-1.016c-2.066-1.285-3.029-3.715-2.25-5.652
		c1.156-2.771,3.383-3.949,4.822-3.477c0.814,0.254,1.031,1.281,0.879,1.93l-0.217,0.377l-0.146-0.107
		c-0.318-0.301-0.85-0.426-1.369-0.32c-0.406,0.076-1.176,0.365-1.672,1.406c-0.508,1.053,0.064,1.891,0.758,2.328
		c1.387,0.885,3.613,0.705,5.156-1.385c1.016-1.371,1.363-3.135,0.914-4.609c-0.283-0.912-1.004-2.137-2.848-2.779
		c-2.498-0.873-7.197-0.168-9.822,4.172c-2.42,4.07-0.973,7.307,1.428,9.203l-0.457-0.01
		C751.512,181.129,747.323,181.711,745.194,185.662"/>
	<path d="M772.465,182.127l0.773-0.91c0.539-0.922,0.42-1.771-0.318-2.215c-0.465-0.254-1.064-0.268-1.615-0.047
		c-0.631,0.262-1.111,0.805-1.311,1.492c-0.061,0.191-0.121,0.352-0.529,1.088c-1.416,2.572-3.783,6.084-5.564,7.834
		c-0.764,0.768-1.139,1.588-1.223,2.668c-0.074,1.324,0.652,2.547,1.865,3.113c0.68,0.312,1.43,0.469,2.236,0.469
		c0.934,0,1.936-0.209,2.984-0.625c1.846,0.908,4.34-0.006,5.902-1.266c0.199-0.158,0.303-0.367,0.484-0.539
		c0.078,0.25,0.055,0.545,0.195,0.766c0.582,0.918,1.637,1.43,2.961,1.43c3.711,0,6.406-2.049,8.254-6.262
		c0.309-0.689-0.047-1.449-0.383-1.74l-1.09-0.375l-0.457,0.361c-0.803,1.76-1.895,3.309-2.859,4.051
		c-0.785,0.605-1.668,0.754-2.195,0.346c-0.391-0.293-0.324-0.994,0.197-2.086l2.557-5.588h1.135c1.072,0,1.932-1.332,2.109-2.094
		l-0.104-0.805l-0.412-0.18h-1.33l2.209-4.766l0.035-0.836l-0.67-0.426l-0.363-0.027c-1.076,0-2.646,0.574-3.25,1.812l-1.998,4.242
		h-0.279c-0.59,0-1.105,0.219-1.48,0.633c-0.586,0.617-0.719,1.537-0.504,2.035l0.57,0.41h0.207l-1.387,2.955
		c-0.383-0.051-0.641,0.066-0.711,0.264c-0.225,0.521-1.16,2.246-2.141,3.424c-0.691,0.799-1.342,1.244-1.723,1.396
		c0.586-0.941,1.172-2.125,1.172-3.775c0-1.623-0.805-2.645-1.52-3.547l-0.531-0.697l-0.188-0.254l-0.322-0.912l0.436-0.666
		L772.465,182.127z M767.858,191.959c0.389-0.91,0.281-1.717-0.305-2.305c0.918-0.949,1.83-2.301,2.441-3.422
		c0.332,0.996,0.367,2.383,0.066,3.719c-0.555,2.318-1.852,3.699-3.488,3.699h-0.049l-0.645-0.129
		C766.612,193.4,767.44,192.961,767.858,191.959"/>
	<path d="M791.567,192.646c0.727-1.387,0.518-2.527-0.41-2.527c-0.943,0-2.291,1.141-3.018,2.527
		c-0.695,1.391-0.521,2.492,0.416,2.492C789.528,195.139,790.84,194.037,791.567,192.646"/>
	<path d="M807.831,183.416c-4.574,3.367-8.529,6.27-8.529,8.16c0,0.436,0.209,1.18,0.502,1.801c0.471,1.152,1.08,1.797,1.666,1.797
		l0.279-0.047c2.992-1.041,5.838-1.545,8.699-1.545c0.631,0,1.254,0.197,1.75,0.352l0.873,0.205l0.072-0.004
		c0.824-0.09,2.016-1.965,2.016-3.188c0-1.594-3.055-1.938-3.811-1.938c-0.807,0-1.682,0.164-2.451,0.312
		c-0.652,0.123-1.266,0.242-1.742,0.242l-0.273-0.203l0.387-0.449c0.574-0.486,1.211-0.918,1.832-1.332
		c0.555-0.375,1.129-0.762,1.664-1.193c1.297-1.059,2.762-2.049,4.168-3.006c0.605-0.412,1.215-0.826,1.801-1.238l0.006-0.004
		c2.205-1.578,5.135-3.967,5.135-6.492c0-3.277-1.98-5.23-5.299-5.23c-2.818,0-6.807,1.367-8.643,3.895
		c-0.07,0.105-0.707,1.039-0.707,1.68c0,0.438,1.006,2.459,1.629,2.459c0.828,0,1.301-0.936,1.719-1.766l0.5-0.857
		c1.395-1.625,2.77-2.266,4.664-2.154l0.816,0.514l0.203,1.078C816.252,177.23,811.969,180.375,807.831,183.416"/>
	<path d="M837.95,173.254l-0.035-0.348l-0.361-1.264c-0.424-0.615-1.562-1.328-2.404-1.328c-2.01,0-6.072,3.084-7.432,4.367
		c-3.297,3.076-7.148,8.59-7.148,14.016c0,3.105,1.734,6.443,5.539,6.443c6.418,0,13.646-11.408,13.646-17.488
		c0-1.572-0.564-2.293-1.061-2.926C838.342,174.283,838.043,173.896,837.95,173.254 M836.01,176.717
		c-0.211,1.504-1.33,4.643-3.285,7.961c-2.193,3.668-4.457,5.859-6.061,5.859c-0.959,0-1.385-1.176-1.385-2.016
		c0-2.746,2.656-7.309,4.572-9.543c1.125-1.314,3.867-3.994,5.268-3.994h0.051l0.594,0.258
		C835.999,175.527,836.092,176.08,836.01,176.717"/>
	<path d="M856.584,173.254l-0.035-0.348l-0.359-1.264c-0.422-0.615-1.562-1.328-2.406-1.328c-2.008,0-6.072,3.084-7.43,4.367
		c-3.297,3.082-7.15,8.598-7.15,14.016c0,3.105,1.734,6.443,5.543,6.443c6.416,0,13.646-11.408,13.646-17.488
		c0-1.572-0.568-2.293-1.062-2.926C856.981,174.283,856.678,173.896,856.584,173.254 M854.649,176.717
		c-0.213,1.504-1.334,4.643-3.283,7.961c-2.191,3.668-4.457,5.859-6.066,5.859c-0.953,0-1.385-1.176-1.385-2.016
		c0-2.746,2.658-7.309,4.576-9.543c1.125-1.314,3.867-3.994,5.268-3.994h0.047l0.596,0.258
		C854.637,175.527,854.731,176.08,854.649,176.717"/>
	<path d="M857.327,189.943c0,3.566,2.988,5.162,5.957,5.162c4.256,0,8.613-2.719,10.352-6.463c0.266-0.545,0.621-1.586,0.621-2.195
		c0-1.711-0.656-2.758-1.094-3.457l-0.312-0.539c1.406-0.439,3.227-1.289,4.43-2.895c1.381-1.768,1.957-4.348,0.455-5.836
		l0.146-0.246l0.598-0.762l0.006-0.002l0.107-0.078l0.445-0.66c0-1.506-3.564-1.627-3.6-1.627c-4.037,0-9.48,2.75-10.834,6.703
		l-0.059,0.176l-0.191,0.879c0,1.529,0.242,2.143,0.969,3.318C861.6,182.836,857.327,185.438,857.327,189.943 M869.245,188.035
		c-0.602,2.127-2.291,3.484-4.246,3.484l-0.645-0.047c-1.191-0.176-2.004-1.359-1.875-2.752c0.199-2.25,3.914-4.043,5.588-4.48
		l0.385,0.557C869.081,185.68,869.674,186.518,869.245,188.035 M874.741,176.025c0,1.523-3.035,3.061-4.375,3.27
		c-0.576-0.83-1.539-3.025-0.307-4.289c0.643-0.672,1.857-1.16,2.885-1.16C874.137,173.846,874.741,174.576,874.741,176.025"/>
	<path d="M917.555,125.205c-0.65-0.969-2.158-2.393-4.605-4.242c0,0-0.41-0.309-1.16-0.863
		C835.479,55.016,674.159,10.135,487.473,10.135c-91.564,0-177.012,10.807-249.334,29.488
		C149.506,60.787,81.391,93.619,46.565,133.818c-19.164,20.395-29.879,42.562-30.363,65.844
		c-1.707,83.746,129.166,156.91,313.506,186.203C185.37,351.846,88.311,288.4,89.776,217.068c0.027-1.375,0.121-2.746,0.227-4.121
		c0.996-12.062,4.941-21.135,4.941-21.135c3.719-8.529,12.299-20.73,19.072-27.129l28.869-27.246l1.76-1.66
		c6.773-6.395,19.08-9.529,27.35-6.967c8.268,2.561,20.662-0.484,27.543-6.768l20.188-18.428c6.883-6.285,18.469-6.668,25.75-0.857
		l21.441,17.109c7.281,5.811,20.24,7.543,28.797,3.857l34.766-14.988c8.551-3.691,22.713-4.09,31.465-0.895l32.812,11.992
		c8.754,3.197,21.48,0.605,28.285-5.762l53.295-49.836c6.803-6.365,18.088-6.527,25.074-0.365l47.412,41.844
		c6.986,6.162,18.658,6.447,25.938,0.631l9.771-7.805c7.277-5.816,18.15-4.748,24.154,2.379l14.109,16.734
		c6.008,7.123,17.578,9.238,25.715,4.699L717.096,84.1c8.143-4.539,21.355-4.367,29.377,0.375l70.596,41.762
		c8.025,4.744,20.32,3.607,27.336-2.527l6.934-6.068c7.012-6.135,19.836-8.35,28.496-4.92l4.375,1.73
		c44.453,29.73,70.125,64.766,70.125,102.287c0,8.166-1.234,16.209-3.592,24.111c5.238-11.631,8.004-23.619,8.004-35.877
		C958.747,176.553,944.016,149.553,917.555,125.205"/>
</g>
</svg>
